<?xml version="1.0" standalone="no"?>
<!DOCTYPE svg PUBLIC "-//W3C//DTD SVG 20010904//EN"
 "http://www.w3.org/TR/2001/REC-SVG-20010904/DTD/svg10.dtd">
<svg version="1.0" xmlns="http://www.w3.org/2000/svg" viewBox="0 0 2000 2000" width="100" height="100">
<rect x="0" y="0" rx="400" ry="400" width="2000" height="2000" style="fill:rgb(51,102,255);" />
<polygon points="1000,200 200,1700 1800,1700" style="fill:white;" />
<path transform="translate(620, 850) scale(0.8) skewX(-20)" style="fill:rgb(51,102,255);" d="M772.2,788C632.2,678.5,731,228.3,731,228.3s153.3,0,171.1,0S990,217,990,133.2c0-103.1-85.6-96.8-85.6-96.8s-469,0-630,0C171,36.4,77.7,154.8,24.1,239.5c-28.5,45.2-12.4,57.9,36.6,36.6C232.4,200.9,280.8,228,280.8,228c12.1,57.9,16.1,319.2-27.9,422.3c-44.7,97.1-127,220.1-6.1,292.4c94.5,53.6,193.6-56.5,183.8-243.7c-4.6-99.1-12.4-470.7-12.4-470.7H576c-4.9,57.9-31.7,353.5-3.7,528.6c29.1,292.4,346.8,235.7,406.2,70c14.7-45.8,11.2-81,0.3-107.5c-20.2-49.3-53.9-51.8-50.1-28.8c2.3,14.7,0.9,29.1-1.4,42.1C920.3,772.7,838.5,835.5,772.2,788z"/>
</svg> 
